<?xml version="1.0" standalone="no"?>
<!DOCTYPE svg PUBLIC "-//W3C//DTD SVG 20010904//EN"
 "http://www.w3.org/TR/2001/REC-SVG-20010904/DTD/svg10.dtd">
<svg version="1.0" xmlns="http://www.w3.org/2000/svg"
 width="316.000000pt" height="125.000000pt" viewBox="0 0 316.000000 125.000000"
 preserveAspectRatio="xMidYMid meet">

<g transform="translate(0.000000,125.000000) scale(0.100000,-0.100000)"
fill="#000000" stroke="none">
<path d="M1305 1121 c-11 -5 -29 -19 -40 -31 -19 -21 -20 -38 -23 -302 l-3
-279 35 -35 34 -34 104 0 c428 -3 451 -2 478 18 46 34 51 74 48 349 l-3 253
-33 32 -32 33 -273 2 c-149 1 -281 -2 -292 -6z m416 -170 c41 -42 37 -118 -8
-145 -12 -6 -8 -14 18 -35 29 -24 33 -34 33 -78 2 -96 -48 -123 -224 -123
l-120 0 0 205 0 205 136 0 136 0 29 -29z"/>
<path d="M1500 865 l0 -55 63 0 c74 0 107 18 107 59 0 42 -17 51 -97 51 l-73
0 0 -55z"/>
<path d="M1507 753 c-4 -3 -7 -33 -7 -65 l0 -58 68 0 c92 0 117 14 117 65 0
32 -5 42 -25 52 -26 13 -142 18 -153 6z"/>
<path d="M1110 285 l0 -75 44 0 c24 0 51 3 60 6 18 7 22 49 6 59 -7 4 -7 12 0
25 13 24 13 26 -6 44 -9 10 -33 16 -60 16 l-44 0 0 -75z m93 41 c8 -20 -13
-36 -45 -36 -23 0 -28 4 -28 25 0 22 4 25 34 25 20 0 36 -6 39 -14z m2 -76 c0
-22 -5 -25 -36 -28 -28 -2 -37 1 -41 15 -9 33 2 44 41 41 31 -3 36 -6 36 -28z"/>
<path d="M1525 341 c-3 -6 -3 -11 2 -11 4 0 1 -5 -7 -11 -11 -8 -12 -12 -2
-16 7 -3 12 -23 12 -49 0 -39 2 -44 23 -43 12 0 16 3 10 6 -17 6 -17 80 -1 85
8 3 5 12 -9 27 -13 14 -23 19 -28 12z"/>
<path d="M1710 335 c0 -8 -5 -15 -11 -15 -8 0 -8 -4 -1 -13 6 -7 12 -30 14
-52 3 -34 7 -40 28 -43 22 -2 23 -1 8 8 -21 13 -25 75 -5 84 10 5 10 7 0 12
-7 3 -13 12 -13 20 0 8 -4 14 -10 14 -5 0 -10 -7 -10 -15z"/>
<path d="M1278 308 c-31 -24 -23 -92 13 -103 55 -18 95 66 47 99 -27 19 -39
20 -60 4z m62 -28 c22 -40 -26 -80 -58 -48 -25 25 -6 68 30 68 9 0 22 -9 28
-20z"/>
<path d="M1409 310 c-38 -22 -31 -92 11 -105 59 -19 102 83 44 105 -31 12 -35
12 -55 0z m56 -50 c0 -28 -4 -36 -22 -38 -14 -2 -26 4 -33 17 -15 29 4 63 33
59 18 -2 22 -10 22 -38z"/>
<path d="M1600 305 c-18 -22 -5 -45 30 -51 36 -8 41 -34 5 -34 -14 0 -25 5
-25 10 0 6 -4 10 -10 10 -17 0 -11 -19 9 -30 28 -14 71 4 71 29 0 15 -9 23
-32 29 -17 4 -34 14 -36 21 -4 11 4 12 34 7 36 -6 38 -5 20 9 -25 19 -50 19
-66 0z"/>
<path d="M1780 265 c0 -30 5 -55 10 -55 6 0 10 15 10 34 0 25 7 39 22 50 12 9
19 19 15 22 -4 4 -13 1 -22 -6 -10 -8 -15 -9 -15 -1 0 6 -4 11 -10 11 -5 0
-10 -25 -10 -55z"/>
<path d="M1871 306 c-10 -12 -7 -14 16 -13 38 3 40 -16 3 -26 -64 -16 -47 -64
22 -61 55 3 53 2 38 19 -7 8 -9 26 -5 44 5 23 2 32 -14 40 -27 15 -46 14 -60
-3z m55 -71 c-3 -8 -17 -15 -31 -15 -35 0 -30 32 5 40 27 7 35 -2 26 -25z"/>
<path d="M1980 240 c0 -47 4 -80 10 -80 6 0 10 14 10 30 0 26 3 29 18 22 42
-23 87 31 63 76 -14 26 -48 37 -66 22 -11 -9 -15 -9 -15 -1 0 6 -4 11 -10 11
-6 0 -10 -33 -10 -80z m84 38 c15 -25 -4 -53 -35 -53 -25 0 -37 30 -25 61 8
20 46 14 60 -8z"/>
</g>
</svg>
